# xmcd
#
# Track frame offsets:
#  150
#  12063
#  29034
#  45595
#  62771
#  78318
#  96915
#  124454
#
# Disc length: 1899 seconds
#
# Revision: 0
# Processed by: cddbd v1.5.1PL0 Copyright (c) Steve Scherf et al.
# Submitted via: Collectorz.com_Music_Collector 6.9
#
DISCID=65076908
DTITLE=Chris Mawer Band - Boxcar Special
DYEAR=2005
DGENRE=Blues
TTITLE0=Break Out A Party
TTITLE1=I Don't Care
TTITLE2=Anything To Please You
TTITLE3=Payin' The Price
TTITLE4=Boxcar Special
TTITLE5=So What's Wrong With You
TTITLE6=Rain Is A Bringdown
TTITLE7=Please Come Home
EXTD=
EXTT0=
EXTT1=
EXTT2=
EXTT3=
EXTT4=
EXTT5=
EXTT6=
EXTT7=
PLAYORDER=
